G04 COPPERBENCH 1.3.1 - inspect before ordering*
%FSLAX46Y46*%
%MOMM*%
%TF.GenerationSoftware,GreenShoeGarage,COPPERBENCH,1.3.1*%
%TF.FileFunction,Legend,Top*%
%TF.FilePolarity,Positive*%
%ADD10C,0.100000*%
%ADD11C,0.250000*%
%ADD12C,0.180000*%
%ADD13C,2.050000*%
%LPD*%
G01*
D10*
D11*
X11000000Y47700000D02*
X11000000Y50000000D01*
X12150000Y50000000D01*
X12533300Y49616700D01*
X12533300Y49233300D01*
X12150000Y48850000D01*
X11000000Y48850000D01*
D11*
X13568300Y50000000D02*
X14335000Y50000000D01*
X14718300Y49616700D01*
X14718300Y48083300D01*
X14335000Y47700000D01*
X13568300Y47700000D01*
X13185000Y48083300D01*
X13185000Y49616700D01*
X13568300Y50000000D01*
D11*
X15370000Y50000000D02*
X15370000Y47700000D01*
X16903300Y47700000D01*
D11*
X17555000Y47700000D02*
X18321700Y50000000D01*
X19088300Y47700000D01*
D11*
X17938300Y48466700D02*
X18705000Y48466700D01*
D11*
X19740000Y47700000D02*
X19740000Y50000000D01*
X20890000Y50000000D01*
X21273300Y49616700D01*
X21273300Y49233300D01*
X20890000Y48850000D01*
X19740000Y48850000D01*
D11*
X20506700Y48850000D02*
X21273300Y47700000D01*
D11*
X21925000Y50000000D02*
X23458300Y50000000D01*
D11*
X22691700Y50000000D02*
X22691700Y47700000D01*
D11*
X21925000Y47700000D02*
X23458300Y47700000D01*
D11*
X24110000Y50000000D02*
X25643300Y50000000D01*
D11*
X24876700Y50000000D02*
X24876700Y47700000D01*
D11*
X26295000Y50000000D02*
X27061700Y48850000D01*
X27828300Y50000000D01*
D11*
X27061700Y48850000D02*
X27061700Y47700000D01*
D11*
X32198300Y47700000D02*
X30665000Y49233300D01*
X30665000Y49616700D01*
X31048300Y50000000D01*
X31431700Y50000000D01*
X31815000Y49616700D01*
X31815000Y49233300D01*
X30665000Y48466700D01*
X30665000Y48083300D01*
X31048300Y47700000D01*
X31431700Y47700000D01*
X32198300Y48850000D01*
D11*
X36568300Y49616700D02*
X36185000Y50000000D01*
X35418300Y50000000D01*
X35035000Y49616700D01*
X35035000Y49233300D01*
X35418300Y48850000D01*
X36185000Y48850000D01*
X36568300Y48466700D01*
X36568300Y48083300D01*
X36185000Y47700000D01*
X35418300Y47700000D01*
X35035000Y48083300D01*
D11*
X37220000Y50000000D02*
X38753300Y50000000D01*
D11*
X37986700Y50000000D02*
X37986700Y47700000D01*
D11*
X37220000Y47700000D02*
X38753300Y47700000D01*
D11*
X39405000Y50000000D02*
X39405000Y47700000D01*
X40938300Y47700000D01*
D11*
X41590000Y50000000D02*
X41590000Y47700000D01*
D11*
X43123300Y50000000D02*
X41590000Y48850000D01*
X43123300Y47700000D01*
D11*
X8000000Y43000000D02*
X72000000Y43000000D01*
D11*
X10000000Y22000000D02*
X18000000Y22000000D01*
X18000000Y15000000D01*
X10000000Y15000000D01*
X10000000Y22000000D01*
D11*
X30000000Y18500000D02*
X29991400Y18271100D01*
X29965800Y18043200D01*
X29923100Y17817200D01*
X29863700Y17594100D01*
X29787700Y17375000D01*
X29695500Y17160600D01*
X29587500Y16952000D01*
X29464100Y16750000D01*
X29325900Y16555500D01*
X29173400Y16369300D01*
X29007400Y16192300D01*
X28828400Y16025100D01*
X28637400Y15868600D01*
X28435000Y15723300D01*
X28222300Y15589900D01*
X28000000Y15468900D01*
X27769200Y15360900D01*
X27530700Y15266400D01*
X27285800Y15185700D01*
X27035300Y15119300D01*
X26780400Y15067300D01*
X26522100Y15029900D01*
X26261600Y15007500D01*
X26000000Y15000000D01*
X25738400Y15007500D01*
X25477900Y15029900D01*
X25219600Y15067300D01*
X24964700Y15119300D01*
X24714200Y15185700D01*
X24469300Y15266400D01*
X24230800Y15360900D01*
X24000000Y15468900D01*
X23777700Y15589900D01*
X23565000Y15723300D01*
X23362600Y15868600D01*
X23171600Y16025100D01*
X22992600Y16192300D01*
X22826600Y16369300D01*
X22674100Y16555500D01*
X22535900Y16750000D01*
X22412500Y16952000D01*
X22304500Y17160600D01*
X22212300Y17375000D01*
X22136300Y17594100D01*
X22076900Y17817200D01*
X22034200Y18043200D01*
X22008600Y18271100D01*
X22000000Y18500000D01*
X22008600Y18728900D01*
X22034200Y18956800D01*
X22076900Y19182800D01*
X22136300Y19405900D01*
X22212300Y19625000D01*
X22304500Y19839400D01*
X22412500Y20048000D01*
X22535900Y20250000D01*
X22674100Y20444500D01*
X22826600Y20630700D01*
X22992600Y20807700D01*
X23171600Y20974900D01*
X23362600Y21131400D01*
X23565000Y21276700D01*
X23777700Y21410100D01*
X24000000Y21531100D01*
X24230800Y21639100D01*
X24469300Y21733600D01*
X24714200Y21814300D01*
X24964700Y21880700D01*
X25219600Y21932700D01*
X25477900Y21970100D01*
X25738400Y21992500D01*
X26000000Y22000000D01*
X26261600Y21992500D01*
X26522100Y21970100D01*
X26780400Y21932700D01*
X27035300Y21880700D01*
X27285800Y21814300D01*
X27530700Y21733600D01*
X27769200Y21639100D01*
X28000000Y21531100D01*
X28222300Y21410100D01*
X28435000Y21276700D01*
X28637400Y21131400D01*
X28828400Y20974900D01*
X29007400Y20807700D01*
X29173400Y20630700D01*
X29325900Y20444500D01*
X29464100Y20250000D01*
X29587500Y20048000D01*
X29695500Y19839400D01*
X29787700Y19625000D01*
X29863700Y19405900D01*
X29923100Y19182800D01*
X29965800Y18956800D01*
X29991400Y18728900D01*
X30000000Y18500000D01*
D11*
X35000000Y22000000D02*
X41000000Y22000000D01*
X38000000Y16000000D01*
X35000000Y22000000D01*
D12*
X17000000Y28750000D02*
X17000000Y30050000D01*
X17433300Y30050000D01*
X17866700Y29616700D01*
X17866700Y29183300D01*
X17433300Y28750000D01*
X17000000Y28750000D01*
D12*
X18451700Y29833300D02*
X18668300Y30050000D01*
X18668300Y28750000D01*
D12*
X18235000Y28750000D02*
X19101700Y28750000D01*
D12*
X40000000Y27200000D02*
X40000000Y28500000D01*
X40433300Y28500000D01*
X40866700Y28066700D01*
X40866700Y27633300D01*
X40433300Y27200000D01*
X40000000Y27200000D01*
D12*
X41235000Y28283300D02*
X41451700Y28500000D01*
X41885000Y28500000D01*
X42101700Y28283300D01*
X42101700Y28066700D01*
X41235000Y27200000D01*
X42101700Y27200000D01*
D12*
X63866700Y28283300D02*
X63650000Y28500000D01*
X63216700Y28500000D01*
X63000000Y28283300D01*
X63000000Y27416700D01*
X63216700Y27200000D01*
X63650000Y27200000D01*
X63866700Y27416700D01*
D12*
X64451700Y28283300D02*
X64668300Y28500000D01*
X64668300Y27200000D01*
D12*
X64235000Y27200000D02*
X65101700Y27200000D01*
D12*
X10790000Y33600000D02*
X10790000Y32400000D01*
D12*
X11590000Y33600000D02*
X10790000Y33000000D01*
X11590000Y32400000D01*
D12*
X22410000Y32400000D02*
X22810000Y33600000D01*
X23210000Y32400000D01*
D12*
X22610000Y32800000D02*
X23010000Y32800000D01*
D12*
X36000000Y33600000D02*
X36000000Y32400000D01*
D12*
X36800000Y33600000D02*
X36000000Y33000000D01*
X36800000Y32400000D01*
D12*
X43200000Y32400000D02*
X43600000Y33600000D01*
X44000000Y32400000D01*
D12*
X43400000Y32800000D02*
X43800000Y32800000D01*
D12*
X59000000Y33000000D02*
X59800000Y33000000D01*
D12*
X59400000Y33400000D02*
X59400000Y32600000D01*
D12*
X66200000Y33000000D02*
X67000000Y33000000D01*
G36*
X46000000Y21000000D02*
X52000000Y21000000D01*
X49000000Y15000000D01*
X46000000Y21000000D01*
G37*
G36*
X60000000Y21000000D02*
X61000000Y21000000D01*
X61000000Y15000000D01*
X60000000Y15000000D01*
X60000000Y21000000D01*
G37*
G36*
X61000000Y21000000D02*
X66000000Y21000000D01*
X66000000Y20000000D01*
X61000000Y20000000D01*
X61000000Y21000000D01*
G37*
G36*
X61000000Y18500000D02*
X64000000Y18500000D01*
X64000000Y17500000D01*
X61000000Y17500000D01*
X61000000Y18500000D01*
G37*
G36*
X61000000Y16000000D02*
X66000000Y16000000D01*
X66000000Y15000000D01*
X61000000Y15000000D01*
X61000000Y16000000D01*
G37*
%LPC*%
D13*
X13190000Y33000000D03*
D13*
X20810000Y33000000D03*
D13*
X38730000Y33000000D03*
D13*
X41270000Y33000000D03*
D13*
X61750000Y33000000D03*
D13*
X64250000Y33000000D03*
D13*
X56014300Y14235700D03*
D13*
X53985700Y15764300D03*
G36*
X-1000000Y56000000D02*
X81000000Y56000000D01*
X81000000Y55000000D01*
X-1000000Y55000000D01*
X-1000000Y56000000D01*
G37*
G36*
X-1000000Y55000000D02*
X0Y55000000D01*
X0Y0D01*
X-1000000Y0D01*
X-1000000Y55000000D01*
G37*
G36*
X80000000Y55000000D02*
X81000000Y55000000D01*
X81000000Y0D01*
X80000000Y0D01*
X80000000Y55000000D01*
G37*
G36*
X-1000000Y0D02*
X81000000Y0D01*
X81000000Y-1000000D01*
X-1000000Y-1000000D01*
X-1000000Y0D01*
G37*
%LPD*%
M02*
